<svg width="179" height="54" viewBox="0 0 179 54" fill="none" xmlns="http://www.w3.org/2000/svg">
<g filter="url(#filter0_d)">
<path d="M86.06 18.14V19H81.74L78.4 14.3H75.3V19H71V18.14H72.94V5.02H78.14C80.2733 5.02 81.8 5.38 82.72 6.1C83.64 6.82 84.1 7.97333 84.1 9.56C84.1 11.8667 83.0933 13.32 81.08 13.92L84.12 18.14H86.06ZM78.24 12.16C79.5733 12.16 80.48 11.9533 80.96 11.54C81.44 11.1267 81.68 10.4667 81.68 9.56C81.68 8.64 81.4333 8.01333 80.94 7.68C80.4467 7.33333 79.5667 7.16 78.3 7.16H75.3V12.16H78.24ZM87.4908 18.14V5.02H97.3108V7.24H89.8508V10.94H96.5508V13.04H89.8508V16.78H97.5508V18.14H99.4908V19H85.5508V18.14H87.4908ZM113.357 18.14V19H98.6367V18.14H103.077C102.023 17.5133 101.19 16.66 100.577 15.58C99.9767 14.5 99.6767 13.28 99.6767 11.92C99.6767 9.86667 100.383 8.14667 101.797 6.76C103.223 5.37333 105.017 4.68 107.177 4.68C109.35 4.68 111.163 5.48 112.617 7.08L111.117 8.72C110.45 8.08 109.817 7.63333 109.217 7.38C108.63 7.12667 107.937 7 107.137 7C105.723 7 104.537 7.46 103.577 8.38C102.617 9.28667 102.137 10.4533 102.137 11.88C102.137 13.2933 102.61 14.48 103.557 15.44C104.517 16.3867 105.65 16.86 106.957 16.86C107.77 16.86 108.47 16.7267 109.057 16.46C109.643 16.18 110.257 15.74 110.897 15.14L112.417 16.7C111.83 17.34 111.27 17.82 110.737 18.14H113.357ZM130.163 18.14V19H113.363V18.14H117.943C116.85 17.5133 115.983 16.6533 115.343 15.56C114.717 14.4667 114.403 13.2467 114.403 11.9C114.403 9.84667 115.11 8.13333 116.523 6.76C117.937 5.37333 119.683 4.68 121.763 4.68C123.843 4.68 125.59 5.37333 127.003 6.76C128.417 8.13333 129.123 9.84667 129.123 11.9C129.123 13.2333 128.803 14.4533 128.163 15.56C127.537 16.6667 126.677 17.5267 125.583 18.14H130.163ZM125.263 8.32C124.317 7.33333 123.15 6.84 121.763 6.84C120.377 6.84 119.203 7.33333 118.243 8.32C117.297 9.30667 116.823 10.5067 116.823 11.92C116.823 13.32 117.297 14.5133 118.243 15.5C119.203 16.4867 120.377 16.98 121.763 16.98C123.15 16.98 124.317 16.4867 125.263 15.5C126.223 14.5133 126.703 13.32 126.703 11.92C126.703 10.5067 126.223 9.30667 125.263 8.32ZM132.1 18.14V5.02H134.46V18.14H136.4V19H130.16V18.14H132.1ZM149.011 18.14V19H136.391V18.14H138.331V5.02H140.691V16.76H147.071V18.14H149.011ZM153.299 18.14V19H147.719V18.14H149.459C149.165 17.8733 149.019 17.5267 149.019 17.1C149.019 16.66 149.159 16.3 149.439 16.02C149.732 15.7267 150.085 15.58 150.499 15.58C150.912 15.58 151.265 15.7267 151.559 16.02C151.852 16.3 151.999 16.6533 151.999 17.08C151.999 17.5067 151.845 17.86 151.539 18.14H153.299ZM164.325 18.14V19H153.305V18.14H155.505C154.918 17.8733 154.391 17.4933 153.925 17L155.265 15.14C156.171 16.0067 157.058 16.44 157.925 16.44C158.538 16.44 159.058 16.2333 159.485 15.82C159.925 15.4067 160.145 14.7867 160.145 13.96V7.14H155.705V5.02H162.505V13.84C162.505 15.92 161.818 17.3533 160.445 18.14H164.325ZM176.92 18.14V19H164.32V18.14H166.88C166.24 17.8067 165.654 17.3933 165.12 16.9L166.6 15.12C168.014 16.3467 169.48 16.96 171 16.96C171.76 16.96 172.36 16.8 172.8 16.48C173.254 16.1467 173.48 15.7133 173.48 15.18C173.48 14.6333 173.267 14.2133 172.84 13.92C172.427 13.6133 171.707 13.34 170.68 13.1C169.654 12.8467 168.874 12.62 168.34 12.42C167.807 12.2067 167.334 11.9333 166.92 11.6C166.094 10.9733 165.68 10.0133 165.68 8.72C165.68 7.42667 166.147 6.43333 167.08 5.74C168.027 5.03333 169.194 4.68 170.58 4.68C171.474 4.68 172.36 4.82667 173.24 5.12C174.12 5.41333 174.88 5.82667 175.52 6.36L174.26 8.14C173.847 7.76667 173.287 7.46 172.58 7.22C171.874 6.98 171.174 6.86 170.48 6.86C169.8 6.86 169.24 7 168.8 7.28C168.36 7.56 168.14 7.98667 168.14 8.56C168.14 9.12 168.36 9.55333 168.8 9.86C169.24 10.1533 170.174 10.4733 171.6 10.82C173.04 11.1667 174.12 11.6533 174.84 12.28C175.574 12.9067 175.94 13.7867 175.94 14.92C175.94 16.2933 175.434 17.3667 174.42 18.14H176.92ZM84.54 42.14V43H70.78V42.14H72.72V29.02H77.66C79.8067 29.02 81.3667 29.44 82.34 30.28C83.3267 31.1067 83.82 32.3867 83.82 34.12C83.82 35.84 83.3133 37.1 82.3 37.9C81.3 38.7 79.7667 39.1 77.7 39.1H75.84V42.14H84.54ZM77.94 36.4C78.98 36.4 79.6867 36.1933 80.06 35.78C80.4333 35.3533 80.62 34.74 80.62 33.94C80.62 33.1267 80.3733 32.5533 79.88 32.22C79.4 31.8733 78.6467 31.7 77.62 31.7H75.84V36.4H77.94ZM91.0952 42.14V43H84.5352V42.14H86.2552V29.02H89.3752V42.14H91.0952ZM105.658 42.14V43H90.0777V42.14H92.0177V40.86L99.3377 31.72H92.2577V29.02H103.598V31.18L96.2977 40.28H103.718V42.14H105.658ZM119.271 42.14V43H103.691V42.14H105.631V40.86L112.951 31.72H105.871V29.02H117.211V31.18L109.911 40.28H117.331V42.14H119.271ZM120.044 42.14V29.02H130.124V31.8H123.164V34.68H129.424V37.34H123.164V40.24H130.344V42.14H132.284V43H118.104V42.14H120.044ZM133.13 42.14V29.02H138.43C140.603 29.02 142.15 29.3867 143.07 30.12C144.003 30.8533 144.47 32.0333 144.47 33.66C144.47 35.9 143.583 37.3467 141.81 38L144.73 42.14H146.61V43H141.51L138.41 38.54H136.25V43H131.19V42.14H133.13ZM138.53 35.84C139.597 35.84 140.323 35.6667 140.71 35.32C141.097 34.9733 141.29 34.4267 141.29 33.68C141.29 32.92 141.09 32.4 140.69 32.12C140.29 31.84 139.59 31.7 138.59 31.7H136.25V35.84H138.53ZM152.501 42.14V43H145.941V42.14H147.661V29.02H150.781V42.14H152.501ZM169.444 42.14V43H164.184L162.884 39.98H157.024L155.724 43H150.464V42.14H152.764L158.444 29.02H161.464L167.124 42.14H169.444ZM159.964 33.18L158.204 37.24H161.704L159.964 33.18Z" fill="white"/>
</g>
<g filter="url(#filter1_d)">
<path d="M17.6515 2.01314C16.2628 1.88252 14.9703 2.73673 14.6154 4.08595L13.3426 8.92166C29.4662 9.39345 40.3734 20.146 41.0558 36.1638L45.949 34.8078C47.3 34.4331 48.1396 33.1165 47.9789 31.7226C46.1845 16.1868 33.2844 3.48869 17.6515 2.01314ZM12.6268 11.6381L4.04591 44.2506C3.98353 44.4875 3.98474 44.7367 4.0494 44.973C4.11407 45.2093 4.23991 45.4243 4.41423 45.5965C4.58855 45.7686 4.80518 45.8917 5.04228 45.9534C5.27938 46.0151 5.52855 46.0132 5.76466 45.9478L38.335 36.9158C37.968 21.8862 27.7578 11.81 12.6268 11.6416V11.6381ZM14.9986 37.7502C14.4547 37.7502 13.9231 37.589 13.4708 37.2868C13.0186 36.9846 12.6661 36.5551 12.458 36.0526C12.2498 35.5501 12.1954 34.9972 12.3015 34.4638C12.4076 33.9303 12.6695 33.4403 13.0541 33.0557C13.4387 32.6711 13.9287 32.4092 14.4621 32.3031C14.9956 32.197 15.5485 32.2514 16.051 32.4596C16.5535 32.6677 16.983 33.0202 17.2852 33.4724C17.5874 33.9247 17.7486 34.4564 17.7486 35.0002C17.7486 35.7296 17.4589 36.4291 16.9432 36.9448C16.4275 37.4605 15.728 37.7502 14.9986 37.7502ZM19.1236 24.6877C18.5797 24.6877 18.0481 24.5265 17.5958 24.2243C17.1436 23.9221 16.7911 23.4926 16.583 22.9901C16.3748 22.4876 16.3204 21.9347 16.4265 21.4013C16.5326 20.8678 16.7945 20.3778 17.1791 19.9932C17.5637 19.6086 18.0537 19.3467 18.5871 19.2406C19.1206 19.1345 19.6735 19.1889 20.176 19.3971C20.6785 19.6052 21.108 19.9577 21.4102 20.4099C21.7124 20.8622 21.8736 21.3939 21.8736 21.9377C21.8736 22.6671 21.5839 23.3666 21.0682 23.8823C20.5525 24.398 19.853 24.6877 19.1236 24.6877ZM28.0611 33.6252C27.5172 33.6252 26.9856 33.464 26.5333 33.1618C26.0811 32.8596 25.7286 32.4301 25.5205 31.9276C25.3123 31.4251 25.2579 30.8722 25.364 30.3388C25.4701 29.8053 25.732 29.3153 26.1166 28.9307C26.5012 28.5461 26.9912 28.2842 27.5246 28.1781C28.0581 28.072 28.611 28.1264 29.1135 28.3346C29.616 28.5427 30.0455 28.8952 30.3477 29.3474C30.6499 29.7997 30.8111 30.3314 30.8111 30.8752C30.8111 31.6046 30.5214 32.3041 30.0057 32.8198C29.49 33.3355 28.7905 33.6252 28.0611 33.6252Z" fill="white"/>
</g>
<defs>
<filter id="filter0_d" x="68.78" y="4.67999" width="110.14" height="42.32" filterUnits="userSpaceOnUse" color-interpolation-filters="sRGB">
<feFlood flood-opacity="0" result="BackgroundImageFix"/>
<feColorMatrix in="SourceAlpha" type="matrix" values="0 0 0 0 0 0 0 0 0 0 0 0 0 0 0 0 0 0 127 0"/>
<feOffset dy="2"/>
<feGaussianBlur stdDeviation="1"/>
<feColorMatrix type="matrix" values="0 0 0 0 0 0 0 0 0 0 0 0 0 0 0 0 0 0 0.25 0"/>
<feBlend mode="normal" in2="BackgroundImageFix" result="effect1_dropShadow"/>
<feBlend mode="normal" in="SourceGraphic" in2="effect1_dropShadow" result="shape"/>
</filter>
<filter id="filter1_d" x="0" y="2" width="51.9985" height="51.9983" filterUnits="userSpaceOnUse" color-interpolation-filters="sRGB">
<feFlood flood-opacity="0" result="BackgroundImageFix"/>
<feColorMatrix in="SourceAlpha" type="matrix" values="0 0 0 0 0 0 0 0 0 0 0 0 0 0 0 0 0 0 127 0"/>
<feOffset dy="4"/>
<feGaussianBlur stdDeviation="2"/>
<feColorMatrix type="matrix" values="0 0 0 0 0 0 0 0 0 0 0 0 0 0 0 0 0 0 0.25 0"/>
<feBlend mode="normal" in2="BackgroundImageFix" result="effect1_dropShadow"/>
<feBlend mode="normal" in="SourceGraphic" in2="effect1_dropShadow" result="shape"/>
</filter>
</defs>
</svg>
