<svg width="25" height="24" viewBox="0 0 25 24" fill="none" xmlns="http://www.w3.org/2000/svg">
<circle cx="12.6667" cy="12" r="12" fill="#2ECC71"/>
<path d="M16.1705 5C16.1705 5 15.0186 6.11753 13.7729 6.56808C4.5477 9.90485 8.43834 16.4073 8.56527 16.4287C8.56527 16.4287 9.08257 15.5279 9.78137 15.014C14.2156 11.7542 15.1169 8.00198 15.1169 8.00198C15.1169 8.00198 14.1218 12.5171 10.1769 15.3266C9.3056 15.9467 8.71563 17.4738 8.46589 19C8.46589 19 9.08351 18.7505 9.3491 18.6829C9.45266 18.007 9.66919 17.3599 10.0353 16.7818C15.5488 17.4382 17.3546 12.9955 17.5905 11.4464C18.1473 7.7876 16.1705 5 16.1705 5Z" fill="white"/>
</svg>
